<svg width="112" height="82" fill="none" xmlns="http://www.w3.org/2000/svg"><path d="M48.193 56.031a30.36 30.36 0 0 0 10.175-11.874m33.452 8.436a23.025 23.025 0 0 0-5.522-3.736l-.336-.162M83.274 36.35a14.408 14.408 0 0 0-.569 4v6.774l-1.72-.83a54.772 54.772 0 0 0-21.3-5.351 30.03 30.03 0 0 0 1.63-9.784c0-16.63-13.528-30.158-30.157-30.158C14.529 1.001 1 14.53 1 31.159c0 16.63 13.529 30.158 30.158 30.158 5.09 0 9.89-1.27 14.1-3.507 1.568 1.36 27.469 23.627 41.015 23.627.166 0 .331-.003.493-.01C100.322 80.86 110.57 69.745 111 69.272" stroke="#05C2DF" stroke-width="1.007"/></svg>